<?xml version="1.0" encoding="utf-8"?>
<svg version="1.1" id="Layer_1" xmlns="http://www.w3.org/2000/svg" x="0px" y="0px" viewBox="32.854 35.712 312.361 303.875" style="enable-background:new 0 0 550 400;">
  <style type="text/css">
	.st0{fill:#FFFFFF;}
</style>
  <g>
    <path class="st0" d="M305.6,185.4c2.9-3.1,6.7-4.7,11.3-4.7c4.7,0,8.6,1.6,11.5,4.7c2.9,3.1,4.3,7.2,4.3,12.3 c0,5.1-1.4,9.2-4.3,12.3c-2.9,3.1-6.7,4.6-11.5,4.6c-4.7,0-8.6-1.6-11.5-4.7c-2.8-3.1-4.2-7.3-4.2-12.5 C301.3,192.5,302.7,188.5,305.6,185.4 M296.8,217.4c5.4,5.4,12,8.1,19.9,8.1c8,0,14.7-2.7,20.2-8c5.5-5.4,8.2-12,8.2-19.9 c0-7.9-2.7-14.5-8.1-19.9c-5.5-5.4-12.2-8.1-20.1-8.1c-7.9,0-14.5,2.7-20,8c-5.5,5.4-8.2,11.9-8.2,19.5 C288.8,205.3,291.5,212.1,296.8,217.4 M288.9,182.6v-11.4h-11.7v-19.4H265v19.4h-6.2v11.4h6.2V224h12.2v-41.5H288.9z M207.9,224 h12.3v-25.5c0-6.6,0.8-11.2,2.5-13.8c1.7-2.7,4.6-4,8.6-4c3.7,0,6.3,1,7.7,3c1.4,2,2.2,5.6,2.2,10.8V224h12.3v-32.4 c0-7.5-1.5-12.8-4.5-16.1c-3.4-3.9-8.2-5.8-14.4-5.8c-5.4,0-10.2,2.1-14.4,6.4v-4.9h-12.3V224z M195.8,171.2h-12.2V224h12.2V171.2z M195.8,152.3c0-5.9-2.1-11-6.4-15.2c-4.2-4.2-9.3-6.4-15.2-6.4c-6,0-11.1,2.1-15.3,6.4c-4.2,4.2-6.3,9.3-6.3,15.2v18.9h-4.3v11.4 h4.3V224h12.2v-41.5h13.4v-11.4h-13.4v-18.9c0-2.8,0.9-5.1,2.7-7.1c1.8-2,4-3,6.7-3c2.7,0,4.9,1,6.8,3.1c1.7,2,2.6,4.4,2.6,7.1v4.9 h12.2V152.3z" style=""/>
    <rect x="133" y="171.2" class="st0" width="9.8" height="11.4" style=""/>
    <rect x="117.5" y="171.2" class="st0" width="6.5" height="11.4" style=""/>
    <rect x="83.8" y="171.2" class="st0" width="5.3" height="11.4" style=""/>
    <rect x="50.1" y="171.2" class="st0" width="3.9" height="11.4" style=""/>
    <rect x="33" y="171.2" class="st0" width="3.9" height="11.4" style=""/>
    <rect x="100.6" y="171.2" class="st0" width="5.9" height="11.4" style=""/>
    <rect x="67.3" y="171.2" class="st0" width="3.9" height="11.4" style=""/>
    <rect x="241.2" y="229.9" class="st0" width="12.3" height="9.8" style=""/>
    <rect x="241.2" y="248.7" class="st0" width="12.3" height="6.6" style=""/>
    <rect x="241.2" y="283.6" class="st0" width="12.3" height="5.3" style=""/>
    <rect x="241.2" y="318.7" class="st0" width="12.3" height="3.9" style=""/>
    <rect x="241.2" y="335.8" class="st0" width="12.3" height="3.9" style=""/>
    <rect x="241.2" y="266.2" class="st0" width="12.3" height="5.9" style=""/>
    <rect x="241.2" y="301.5" class="st0" width="12.3" height="3.9" style=""/>
    <rect x="264.9" y="135.7" class="st0" width="12.2" height="9.8" style=""/>
    <rect x="264.9" y="120.2" class="st0" width="12.2" height="6.5" style=""/>
    <rect x="264.9" y="86.5" class="st0" width="12.2" height="5.3" style=""/>
    <rect x="264.9" y="52.9" class="st0" width="12.2" height="3.9" style=""/>
    <rect x="264.9" y="35.7" class="st0" width="12.2" height="3.9" style=""/>
    <rect x="264.9" y="103.4" class="st0" width="12.2" height="5.9" style=""/>
    <rect x="264.9" y="70" class="st0" width="12.2" height="3.9" style=""/>
  </g>
</svg>